External Loads File
version=1
nRows=46
nColumns=13
Range=5.000000e-03-10 seconds
endheader
time 	forceRightX 	forceRightY 	forceRightZ 	pointRightX 	pointRightY 	pointRightZ 	forceLeftX 	forceLeftY 	forceLeftZ 	pointLeftX 	pointLeftY 	pointLeftZ 		
5.005000 46.145452 64.886191 -0.000000 0.154226 0.328140 -0.140738 -301.526942 885.053842 -0.000000 0.444783 0.276495 -0.370844
5.010000 50.531351 64.107408 -0.000000 0.158100 0.338390 -0.140807 -306.413877 943.984072 -0.000000 0.441584 0.265520 -0.371055
5.015000 52.655652 63.537620 -0.000000 0.162441 0.348269 -0.140728 -308.220008 1003.682083 -0.000000 0.437862 0.254814 -0.371166
5.020000 52.573871 63.934142 -0.000000 0.167404 0.357946 -0.140625 -305.177473 1063.532567 -0.000000 0.433496 0.244494 -0.371239
5.025000 50.430809 66.114034 -0.000000 0.172980 0.367330 -0.140446 -296.319521 1122.247125 -0.000000 0.428635 0.234544 -0.371337
5.030000 46.495719 70.864424 -0.000000 0.179057 0.376458 -0.140398 -280.985450 1178.175073 -0.000000 0.423307 0.225070 -0.371349
5.035000 41.170527 78.843790 -0.000000 0.185607 0.385149 -0.140226 -258.568941 1229.473852 -0.000000 0.417425 0.215998 -0.371330
5.040000 34.939785 90.471180 -0.000000 0.192650 0.393444 -0.140016 -228.830825 1274.096886 -0.000000 0.411137 0.207374 -0.371264
5.045000 28.403030 105.792962 -0.000000 0.200052 0.401609 -0.139932 -191.080908 1310.045597 -0.000000 0.404328 0.199265 -0.371280
5.050000 21.963878 124.534455 -0.000000 0.207913 0.409111 -0.139734 -147.787919 1335.024091 -0.000000 0.397160 0.191705 -0.371247
5.055000 16.154257 146.021426 -0.000000 0.216138 0.416069 -0.139572 -99.299939 1347.552338 -0.000000 0.389544 0.184670 -0.371220
5.060000 11.375981 169.351598 -0.000000 0.224734 0.422813 -0.139402 -46.606159 1346.636698 -0.000000 0.381575 0.178235 -0.371138
5.065000 7.740515 193.508025 -0.000000 0.233636 0.429187 -0.139121 7.860717 1331.965889 -0.000000 0.373245 0.172377 -0.371220
5.070000 5.452206 217.477618 -0.000000 0.243126 0.434961 -0.138177 63.077814 1304.015006 -0.000000 0.364530 0.167027 -0.371321
5.075000 3.812989 240.411736 -0.000000 0.252412 0.440038 -0.138418 113.211585 1264.190829 -0.000000 0.355576 0.162319 -0.371514
5.080000 3.245501 261.638737 -0.000000 0.262007 0.444908 -0.138122 159.744548 1214.125529 -0.000000 0.346404 0.158148 -0.371677
5.085000 3.746838 280.692645 -0.000000 0.272110 0.449401 -0.137664 201.429852 1155.765636 -0.000000 0.337117 0.154555 -0.371965
5.090000 4.747005 297.272635 -0.000000 0.282087 0.453006 -0.137412 235.309427 1091.616560 -0.000000 0.327583 0.151627 -0.372220
5.095000 6.493086 311.229563 -0.000000 0.292284 0.455946 -0.137056 262.491243 1023.573240 -0.000000 0.317924 0.149364 -0.372550
5.100000 8.819524 322.582665 -0.000000 0.302591 0.458454 -0.136835 282.805804 953.656257 -0.000000 0.308190 0.147714 -0.372926
5.105000 11.342707 331.509318 -0.000000 0.312724 0.460394 -0.136672 295.942155 883.806241 -0.000000 0.298397 0.146726 -0.373231
5.110000 13.882772 338.326066 -0.000000 0.322595 0.461796 -0.136343 302.584824 815.375421 -0.000000 0.288606 0.146503 -0.373557
5.115000 16.720481 343.432837 -0.000000 0.332419 0.462489 -0.136149 304.549002 748.855322 -0.000000 0.278801 0.146921 -0.373890
5.120000 19.991474 347.239900 -0.000000 0.342134 0.462127 -0.135667 302.986711 684.480485 -0.000000 0.268939 0.147984 -0.374228
5.125000 23.111670 350.117712 -0.000000 0.351592 0.462095 -0.135441 297.477312 622.787908 -0.000000 0.259173 0.149636 -0.374536
5.130000 26.545653 352.278418 -0.000000 0.360802 0.461090 -0.135287 289.520642 563.188788 -0.000000 0.249569 0.152217 -0.374900
5.135000 30.094669 353.924894 -0.000000 0.369694 0.459423 -0.135160 279.203330 505.618354 -0.000000 0.240133 0.155309 -0.375172
5.140000 33.760271 355.240888 -0.000000 0.378228 0.457194 -0.135095 266.900521 449.919287 -0.000000 0.230943 0.159214 -0.375557
5.145000 37.034684 356.470234 -0.000000 0.386263 0.454396 -0.135182 252.335176 396.480014 -0.000000 0.222192 0.163500 -0.375884
5.150000 40.187924 357.831835 -0.000000 0.393961 0.451004 -0.134897 236.279260 345.337270 -0.000000 0.213894 0.168447 -0.376184
5.155000 43.026851 359.689123 -0.000000 0.401197 0.447077 -0.134775 219.018934 297.130582 -0.000000 0.205967 0.173937 -0.376585
5.160000 45.101675 362.545283 -0.000000 0.407855 0.442561 -0.134655 200.828623 252.813115 -0.000000 0.198705 0.179860 -0.376821
5.165000 47.016023 366.815761 -0.000000 0.414136 0.436997 -0.134470 182.859290 212.800201 -0.000000 0.191954 0.186229 -0.377108
5.170000 47.933626 373.059064 -0.000000 0.419862 0.431269 -0.134128 165.323608 178.234505 -0.000000 0.185661 0.192946 -0.377325
5.175000 48.273951 381.581052 -0.000000 0.425108 0.424783 -0.133859 149.206122 149.422074 -0.000000 0.179925 0.200065 -0.377573
5.180000 47.622629 392.667656 -0.000000 0.429730 0.417851 -0.133570 134.956590 126.764355 -0.000000 0.174669 0.207464 -0.377835
5.185000 46.362377 406.365722 -0.000000 0.433802 0.410283 -0.133177 123.174153 110.008126 -0.000000 0.169856 0.215290 -0.378036
5.190000 44.077215 422.660322 -0.000000 0.437467 0.402240 -0.132944 114.003341 98.837738 -0.000000 0.165644 0.223293 -0.378293
5.195000 40.893211 441.309225 -0.000000 0.440657 0.393589 -0.132702 107.568833 92.440398 -0.000000 0.162055 0.231563 -0.378300
5.200000 36.643682 461.979895 -0.000000 0.443272 0.384410 -0.132572 103.736040 89.829178 -0.000000 0.158904 0.240004 -0.378320
5.205000 31.144181 484.303350 -0.000000 0.445534 0.375001 -0.132339 102.220188 89.860589 -0.000000 0.156128 0.248671 -0.377486
5.210000 24.309670 507.992964 -0.000000 0.447182 0.365164 -0.132135 102.650618 91.344077 -0.000000 0.154125 0.257592 -0.377451
5.215000 16.511634 532.946490 -0.000000 0.448312 0.354910 -0.131877 104.651885 93.107192 -0.000000 0.152705 0.266765 -0.377531
5.220000 7.142888 559.311880 -0.000000 0.449084 0.344939 -0.131840 107.581050 94.386288 -0.000000 0.151841 0.276291 -0.377727
5.225000 -1.465487 587.333266 -0.000000 0.449217 0.333825 -0.131802 111.193466 94.131221 -0.000000 0.151653 0.285869 -0.377896
5.230000 -10.608013 617.370392 -0.000000 0.448865 0.323140 -0.131214 114.575169 92.322419 -0.000000 0.152039 0.295890 -0.377887
